<?xml version="1.0" encoding="UTF-8"?>
<svg id="_레이어_1" data-name="레이어 1" xmlns="http://www.w3.org/2000/svg" viewBox="0 0 327.9 327.9">
  <defs>
    <style>
      .cls-1 {
        fill: #e9d69c;
        stroke: #e9d69c;
      }

      .cls-1, .cls-2, .cls-3, .cls-4 {
        stroke-miterlimit: 10;
        stroke-width: 9px;
      }

      .cls-2 {
        fill: #d47777;
        stroke: #d47777;
      }

      .cls-5 {
        fill: #fff;
      }

      .cls-3 {
        fill: #86a3c3;
        stroke: #86a3c3;
      }

      .cls-4 {
        fill: #849c8a;
        stroke: #849c8a;
      }
    </style>
  </defs>
  <rect class="cls-5" width="327.9" height="327.9" rx="67.47" ry="67.47"/>
  <path class="cls-2" d="M97.1,65.79c1.34.27,3.35.27,6.03,0,2.41-.13,5.43-.27,9.04-.4h3.62c1.88,0,3.78-.03,5.73-.1,1.94-.06,3.72-.1,5.33-.1,6.3-.13,9.91,0,10.85.4,1.07.4,2.61.6,4.62.6s3.62.7,4.82,2.11c1.2,1.41,1.81,3.38,1.81,5.93s-.84,4.32-2.51,5.33c-1.68,1-4.46,1.24-8.34.7-2.14-.4-5.09-.47-8.84-.2-3.75.14-6.97.07-9.65-.2-2.81-.4-6.03-.33-9.65.2-3.75.54-7.04.67-9.85.4-2.55-.13-4.99-.03-7.34.3-2.35.34-3.72.84-4.12,1.51-1.48,2.41-2.21,7.84-2.21,16.28s.67,14.74,2.01,18.89c1.34,3.62,2.41,5.7,3.22,6.23.8.54,3.55.87,8.24,1.01,6.3.27,12.99.2,20.1-.2,4.96-.27,8.11-.27,9.45,0,1.2.27,2.88.54,5.02.8,1.88.27,3.08.57,3.62.9.53.34,1.07,1.11,1.61,2.31,1.34,2.95,1.17,5.19-.5,6.73-1.68,1.54-4.99,2.51-9.95,2.91-3.89.14-6.17.4-6.83.81-.8.4-4.09.47-9.85.2-7.37-.27-12.33-.4-14.87-.4-4.02-.13-6.37-.47-7.04-1.01-.54-.4-2.21-.6-5.02-.6-1.88,0-3.12-.1-3.72-.3-.6-.2-1.37-.7-2.31-1.51-1.34-.94-2.41-1.54-3.22-1.81-.8-.27-1.71-1.04-2.71-2.31-1-1.27-1.64-2.31-1.91-3.12-.27-1.2-.54-2.01-.81-2.41-.27-.67-.4-2.34-.4-5.02,0-2.81-.27-4.75-.8-5.83-.4-.94-.47-4.02-.2-9.25.27-3.35.53-7.84.8-13.47.13-3.88.6-6.56,1.41-8.04.67-1.47.8-2.61.4-3.42-1.88-4.15-1.84-7.64.1-10.45,1.94-2.81,5.33-4.29,10.15-4.42,3.48,0,5.83-.2,7.04-.6,1.74-.53,4.29-.33,7.64.6Z"/>
  <path class="cls-4" d="M212.16,63.18c3.95-.13,6.73.13,8.34.8,1.07.4,2.28.54,3.62.4,2.14-.4,4.75.34,7.84,2.21,1.88,1.07,3.75,2.01,5.63,2.81,1.61.94,3.65,2.55,6.13,4.82,2.48,2.28,3.72,3.75,3.72,4.42,0,.4.73,1.68,2.21,3.82,1.21,1.74,2.01,3.49,2.41,5.23.4,1.74.73,5.43,1.01,11.05.4,4.96.27,8.84-.4,11.66-.67,2.81-2.48,7.17-5.43,13.06-1.21,2.81-3.85,6-7.94,9.55-4.09,3.55-7,5.33-8.74,5.33-.54,0-.94.13-1.2.4-.4.8-3.19,1.51-8.34,2.11-5.16.6-8.28.64-9.35.1-2.28-1.07-4.62-1.61-7.04-1.61-4.15,0-9.14-3.01-14.97-9.04-5.83-6.03-8.74-11.19-8.74-15.48,0-1.34-.34-2.81-1-4.42-.67-1.74-.8-3.22-.4-4.42.4-1.07.47-2.74.2-5.02-.13-2.01-.07-3.82.2-5.43.4-1.61.73-3.15,1-4.62.27-1.47,1.01-3.15,2.21-5.03,1.34-1.88,2.28-3.62,2.81-5.22,1.34-3.35,3.62-6.03,6.83-8.04,1.61-1.07,3.28-2.41,5.03-4.02,1.47-1.61,2.41-2.41,2.81-2.41.27,0,1.41-.53,3.42-1.61,1.47-.81,4.19-1.27,8.14-1.41ZM209.85,79.56c-1.61.74-3.89,2.51-6.83,5.33-2.01,1.88-3.22,3.15-3.62,3.82s-.74,1.61-1.01,2.81c-.13,1.61-.54,3.08-1.2,4.42-1.07,2.01-1.51,4.89-1.31,8.64.2,3.75.9,6.7,2.11,8.84,1.47,2.55,2.34,4.49,2.61,5.83.53,2.81,1.27,4.62,2.21,5.43.94.8,2.75,1.07,5.43.8,1.74-.13,2.85-.17,3.32-.1.47.07.9.37,1.31.9.8,1.2,2.34,1.58,4.62,1.11,2.28-.47,4.49-1.51,6.63-3.12,1.74-1.47,3.02-2.21,3.82-2.21,1.74,0,3.08-1.47,4.02-4.42.53-1.74,1.34-3.48,2.41-5.22,1.07-1.61,1.61-2.74,1.61-3.42s.13-1.41.4-2.21c1.47-3.75,1.88-6.43,1.21-8.04-.27-.94-.6-2.01-1.01-3.22-1.61-5.36-2.78-8.61-3.52-9.75-.74-1.14-2.45-2.44-5.12-3.92-2.14-1.07-4.42-1.61-6.83-1.61s-4.36-.27-5.83-.8c-2.01-.67-3.82-.63-5.43.1Z"/>
  <path class="cls-3" d="M135.08,210.97c3.62.13,6.16.6,7.64,1.41,2.41,1.34,3.89,3.58,4.42,6.73.53,3.15-.27,4.99-2.41,5.53-.8.13-2.14.67-4.02,1.61-1.88.94-3.75,1.14-5.63.6-1.74-.4-3.35-.47-4.82-.2-2.68.54-9.58,1-20.7,1.41-12.86.67-19.56,1.94-20.1,3.82-.4,1.34-.81,2.81-1.21,4.42-.67,2.01-.97,3.38-.9,4.12.07.74.57,2.65,1.51,5.73.4,1.2.87,2.01,1.41,2.41.53.4,1.74.67,3.62.8,1.07.27,2.74.6,5.02,1.01,1.34.27,4.49.34,9.45.2,4.96-.13,8.37-.13,10.25,0,2.01,0,3.55-.27,4.62-.8,1.07-.53,2.61-.81,4.62-.81s3.62-.2,4.82-.6c.81-.27,2.71-.2,5.73.2,3.01.4,4.92.94,5.73,1.61.53.4,1.01,1.44,1.41,3.12.4,1.68.47,2.85.2,3.52-1.61,2.81-2.98,4.59-4.12,5.33-1.14.74-3.25,1.11-6.33,1.11-4.29.27-9.78.6-16.48,1.01-18.89,1.2-31.15.34-36.78-2.61-2.01-1.07-3.15-1.61-3.42-1.61-1.34,0-2.75-1.11-4.22-3.32-1.48-2.21-2.41-4.59-2.81-7.14-.54-2.68-1.01-4.42-1.41-5.22-.67-.81-.9-2.54-.7-5.23.2-2.68.64-4.75,1.31-6.23.67-1.07,1.01-1.77,1.01-2.11s-.27-.97-.81-1.91c-1.2-1.88-1.51-4.02-.9-6.43.6-2.41,1.91-4.29,3.92-5.63,1.21-.8,6.1-1.34,14.67-1.61,3.62-.13,6.36-.4,8.24-.8,1.88-.4,4.15-.6,6.83-.6,2.41,0,3.82-.2,4.22-.6.67-.53,5.36-.8,14.07-.8,2.14,0,3.82-.27,5.03-.81,1.74-.53,4.42-.73,8.04-.6ZM134.68,179.01c1.47.13,3.42.2,5.83.2,1.74,0,2.88.1,3.42.3.53.2,1.27.77,2.21,1.71,1.34,1.21,2.34,2.01,3.02,2.41.67.54,1,1.81,1,3.82,0,1.61-.17,2.65-.5,3.12-.34.47-1.51,1.44-3.52,2.91-1.34,1.07-4.49,1.54-9.45,1.41-9.24-.13-18.62.27-28.14,1.21-20.37,2.01-31.42,2.75-33.16,2.21-1.34-.4-2.21-2.54-2.61-6.43-.27-2.68.5-4.96,2.31-6.83,1.81-1.88,4.12-2.74,6.93-2.61,2.28,0,4.09-.13,5.43-.4,1.07-.4,6.5-.67,16.28-.81,15.54-.4,24.59-1,27.13-1.81.94-.4,2.21-.53,3.82-.4Z"/>
  <path class="cls-1" d="M213.36,182.63c3.95-.13,6.73.13,8.34.8,1.07.4,2.28.54,3.62.4,2.14-.4,4.75.34,7.84,2.21,1.88,1.07,3.75,2.01,5.63,2.81,1.61.94,3.65,2.55,6.13,4.82,2.48,2.28,3.72,3.75,3.72,4.42,0,.4.73,1.68,2.21,3.82,1.21,1.74,2.01,3.49,2.41,5.23.4,1.74.73,5.43,1.01,11.05.4,4.96.27,8.84-.4,11.66-.67,2.81-2.48,7.17-5.43,13.06-1.21,2.81-3.85,6-7.94,9.55-4.09,3.55-7,5.33-8.74,5.33-.54,0-.94.13-1.2.4-.4.8-3.19,1.51-8.34,2.11-5.16.6-8.28.64-9.35.1-2.28-1.07-4.62-1.61-7.04-1.61-4.15,0-9.14-3.01-14.97-9.04-5.83-6.03-8.74-11.19-8.74-15.48,0-1.34-.34-2.81-1-4.42-.67-1.74-.8-3.22-.4-4.42.4-1.07.47-2.74.2-5.02-.13-2.01-.07-3.82.2-5.43.4-1.61.73-3.15,1-4.62.27-1.47,1.01-3.15,2.21-5.03,1.34-1.88,2.28-3.62,2.81-5.22,1.34-3.35,3.62-6.03,6.83-8.04,1.61-1.07,3.28-2.41,5.03-4.02,1.47-1.61,2.41-2.41,2.81-2.41.27,0,1.41-.53,3.42-1.61,1.47-.81,4.19-1.27,8.14-1.41ZM211.05,199.01c-1.61.74-3.89,2.51-6.83,5.33-2.01,1.88-3.22,3.15-3.62,3.82s-.74,1.61-1.01,2.81c-.13,1.61-.54,3.08-1.2,4.42-1.07,2.01-1.51,4.89-1.31,8.64.2,3.75.9,6.7,2.11,8.84,1.47,2.55,2.34,4.49,2.61,5.83.53,2.81,1.27,4.62,2.21,5.43.94.8,2.75,1.07,5.43.8,1.74-.13,2.85-.17,3.32-.1.47.07.9.37,1.31.9.8,1.2,2.34,1.58,4.62,1.11,2.28-.47,4.49-1.51,6.63-3.12,1.74-1.47,3.02-2.21,3.82-2.21,1.74,0,3.08-1.47,4.02-4.42.53-1.74,1.34-3.48,2.41-5.22,1.07-1.61,1.61-2.74,1.61-3.42s.13-1.41.4-2.21c1.47-3.75,1.88-6.43,1.21-8.04-.27-.94-.6-2.01-1.01-3.22-1.61-5.36-2.78-8.61-3.52-9.75-.74-1.14-2.45-2.44-5.12-3.92-2.14-1.07-4.42-1.61-6.83-1.61s-4.36-.27-5.83-.8c-2.01-.67-3.82-.63-5.43.1Z"/>
</svg>